<svg version="1.1" xmlns="http://www.w3.org/2000/svg" viewBox="-296.9599992752075 -1494.400065612793 5492.466286937668 2270.976095581055"><desc>Created with Snap</desc><defs></defs><g><rect x="-296.9599992752075" y="-1494.400065612793" width="5492.466286937668" height="2270.976095581055" fill="#0560af" style=""></rect><g transform="matrix(27.6096,0,0,27.6096,3176.511,-1242.4193)"><path d="M7.605,45.68C7.853,45.851,8,46.147,8,46.471v3.806C7.405,50.624,7,51.262,7,52c0,1.105,0.895,2,2,2h1c-1.105,0-2,0.895-2,2  c0,1.105,0.895,2,2,2h1c0,2.209,1.791,4,4,4s4-1.791,4-4h1c1.105,0,2-0.895,2-2c0-1.105-0.895-2-2-2h1c1.105,0,2-0.895,2-2  c0-0.738-0.405-1.376-1-1.723v-3.805c0-0.326,0.144-0.619,0.384-0.786C25.901,43.255,28,39.26,28,35  c0-3.566-1.416-6.893-3.985-9.367c-2.569-2.473-5.947-3.766-9.522-3.624C7.76,22.267,2.158,27.958,2.004,34.696  C1.903,39.073,3.997,43.18,7.605,45.68z M14.568,24.008c3.028-0.12,5.886,0.974,8.059,3.066C24.802,29.167,26,31.982,26,35  c0,3.603-1.777,6.983-4.753,9.042C20.466,44.582,20,45.49,20,46.473V50h-3v-9.358c2.329-0.849,4-3.132,4-5.822  c0-2.689-1.671-4.971-4-5.82v4.79c0,0.569-0.448,1.03-1,1.03h-2c-0.552,0-1-0.461-1-1.03V29c-2.688,0.98-4.5,3.869-3.877,7.091  c0.408,2.11,1.926,3.859,3.877,4.559V50h-3v-3.529c0-0.98-0.469-1.89-1.255-2.435c-3.054-2.116-4.827-5.591-4.742-9.294  C4.134,29.041,8.873,24.226,14.568,24.008z" fill="#bbe5e8" style=""></path><path d="M28.114,16.058l-1.599,1.599l2.828,2.828l1.599-1.599c0.635,0.375,1.326,0.663,2.058,0.852V22h4v-2.262  c0.732-0.189,1.422-0.477,2.058-0.852l1.599,1.599l2.828-2.828l-1.599-1.599c0.375-0.635,0.663-1.326,0.852-2.058H45v-4h-2.262  c-0.189-0.732-0.477-1.422-0.852-2.058l1.599-1.599l-2.828-2.828l-1.599,1.599C38.422,4.739,37.732,4.451,37,4.262V2h-4v2.262  c-0.732,0.189-1.422,0.477-2.058,0.852l-1.599-1.599l-2.828,2.828l1.599,1.599C27.739,8.578,27.451,9.268,27.262,10H25v4h2.262  C27.451,14.732,27.739,15.422,28.114,16.058z M35,8c2.209,0,4,1.791,4,4c0,2.209-1.791,4-4,4s-4-1.791-4-4C31,9.791,32.791,8,35,8z" fill="#bbe5e8" style=""></path><path d="M58.886,33.942l1.599-1.599l-2.828-2.828l-1.599,1.599c-0.635-0.375-1.326-0.663-2.058-0.852V28h-4v2.262  c-0.732,0.189-1.422,0.477-2.058,0.852l-1.599-1.599l-2.828,2.828l1.599,1.599c-0.375,0.635-0.663,1.326-0.852,2.058H42v4h2.262  c0.189,0.732,0.477,1.422,0.852,2.058l-1.599,1.599l2.828,2.828l1.599-1.599c0.635,0.375,1.326,0.663,2.058,0.852V48h4v-2.262  c0.732-0.189,1.422-0.477,2.058-0.852l1.599,1.599l2.828-2.828l-1.599-1.599c0.375-0.635,0.663-1.326,0.852-2.058H62v-4h-2.262  C59.549,35.268,59.261,34.578,58.886,33.942z M52,42c-2.209,0-4-1.791-4-4c0-2.209,1.791-4,4-4s4,1.791,4,4  C56,40.209,54.209,42,52,42z" fill="#bbe5e8" style=""></path><rect x="13" y="14" width="2" height="2" fill="#bbe5e8" style=""></rect><rect x="19" y="9" width="2" height="2" fill="#bbe5e8" style=""></rect><rect x="49" y="12" width="2" height="2" fill="#bbe5e8" style=""></rect><rect x="53" y="21" width="2" height="2" fill="#bbe5e8" style=""></rect><rect x="34" y="30" width="2" height="2" fill="#bbe5e8" style=""></rect><rect x="57" y="4" width="2" height="2" fill="#bbe5e8" style=""></rect><desc>Created with Snap</desc><defs></defs></g><g><g transform="matrix(1.024,0,0,-1.024,0,0)"><path d="M10 630L492 630L492 552L295 552L295 0L203 0L203 552L10 552L10 630ZM1000 240Q1000 181 982 134Q964 88 932 56Q901 24 859 7Q817 -9 768 -9Q719 -9 677 6Q636 22 605 52Q575 83 557 127Q540 172 540 230Q540 289 558 335Q576 381 607 412Q639 444 681 460Q723 477 772 477Q821 477 862 462Q904 447 934 417Q965 387 982 342Q1000 298 1000 240ZM908 235Q908 282 896 315Q884 348 864 369Q845 390 820 399Q795 409 769 409Q743 409 718 401Q693 393 674 373Q655 353 643 319Q632 286 632 235Q632 188 644 154Q656 121 675 100Q695 79 720 69Q745 59 771 59Q797 59 822 67Q847 76 866 96Q885 117 896 150Q908 184 908 235ZM1419 431L1419 710L1507 710L1507 0L1433 0L1422 52L1419 52Q1388 20 1356 5Q1325 -9 1277 -9Q1239 -9 1203 6Q1168 21 1140 51Q1112 81 1095 126Q1078 172 1078 234Q1078 289 1092 334Q1107 379 1134 411Q1161 443 1200 460Q1239 477 1289 477Q1326 477 1359 465Q1393 454 1419 431ZM1419 124L1419 357Q1372 410 1308 410Q1281 410 1255 400Q1230 391 1210 370Q1191 349 1179 316Q1167 283 1167 237Q1167 189 1178 155Q1189 122 1207 100Q1226 79 1249 69Q1273 59 1297 59Q1372 59 1419 124ZM2074 240Q2074 181 2056 134Q2038 88 2006 56Q1975 24 1933 7Q1891 -9 1842 -9Q1793 -9 1751 6Q1710 22 1679 52Q1649 83 1631 127Q1614 172 1614 230Q1614 289 1632 335Q1650 381 1681 412Q1713 444 1755 460Q1797 477 1846 477Q1895 477 1936 462Q1978 447 2008 417Q2039 387 2056 342Q2074 298 2074 240ZM1982 235Q1982 282 1970 315Q1958 348 1938 369Q1919 390 1894 399Q1869 409 1843 409Q1817 409 1792 401Q1767 393 1748 373Q1729 353 1717 319Q1706 286 1706 235Q1706 188 1718 154Q1730 121 1749 100Q1769 79 1794 69Q1819 59 1845 59Q1871 59 1896 67Q1921 76 1940 96Q1959 117 1970 150Q1982 184 1982 235ZM2193 630L2285 630L2285 0L2193 0L2193 630ZM2374 630L2856 630L2856 552L2659 552L2659 0L2567 0L2567 552L2374 552L2374 630Z" fill="#ffffff" style=""></path></g></g></g></svg>